<?xml version="1.0" encoding="utf-8"?>
<!-- Generator: Adobe Illustrator 16.0.0, SVG Export Plug-In . SVG Version: 6.00 Build 0)  -->
<!DOCTYPE svg PUBLIC "-//W3C//DTD SVG 1.1//EN" "http://www.w3.org/Graphics/SVG/1.1/DTD/svg11.dtd">
<svg version="1.1" id="图层_1" xmlns="http://www.w3.org/2000/svg" xmlns:xlink="http://www.w3.org/1999/xlink" x="0px" y="0px"
	 width="273.14px" height="275.598px" viewBox="0 0 273.14 275.598" enable-background="new 0 0 273.14 275.598"
	 xml:space="preserve">
<path fill="#D83533" d="M86.193,31.239c-3.991,0-7.227,2.737-7.227,6.113s3.235,6.113,7.227,6.113h43.212l7.357-12.227H86.193z"/>
<path fill="#D83533" d="M79.057,73.497c-3.992,0-7.228,2.737-7.228,6.114c0,3.376,3.235,6.113,7.228,6.113h24.922l7.357-12.228
	H79.057z"/>
<path fill="#D83533" d="M147.008,14.213l-10.245,17.026h2.25c3.991,0,7.229,2.737,7.229,6.113s-3.236,6.113-7.229,6.113h-9.608
	l-18.069,30.03h25.653c3.992,0,7.228,2.737,7.228,6.114c0,3.376-3.235,6.113-7.228,6.113h-33.011l-14.537,24.158h15.935
	c3.991,0,7.228,2.737,7.228,6.113s-3.235,6.113-7.228,6.113h-23.29l-10.256,17.558l70.54,37.716l78.563-41.165L147.008,14.213z"/>
<path fill="#D83533" d="M32.581,109.882c-3.991,0-7.228,2.737-7.228,6.113s3.236,6.113,7.228,6.113h49.505l7.356-12.228
	L32.581,109.882L32.581,109.882z"/>
<g>
	<path fill="#35A4DE" d="M212.318,150.347l-73.67,43.428L64.98,150.347l26.997,38.783H69.715c-3.991,0-7.228,2.737-7.228,6.113
		s3.236,6.114,7.228,6.114h30.772l17.857,25.652h-58.1c-3.991,0-7.228,2.737-7.228,6.113s3.236,6.114,7.228,6.114h64.795
		c0.584,0,1.148-0.065,1.693-0.176l11.657,16.746L212.318,150.347z"/>
	<path fill="#35A4DE" d="M55.344,195.245c0,3.376-3.235,6.114-7.227,6.114h-4.984c-3.991,0-7.229-2.738-7.229-6.114l0,0
		c0-3.376,3.236-6.113,7.229-6.113h4.984C52.109,189.131,55.344,191.869,55.344,195.245L55.344,195.245z"/>
</g>
</svg>
