<?xml version="1.0" encoding="utf-8"?>
<!-- Generator: Adobe Illustrator 16.0.0, SVG Export Plug-In . SVG Version: 6.00 Build 0)  -->
<!DOCTYPE svg PUBLIC "-//W3C//DTD SVG 1.1//EN" "http://www.w3.org/Graphics/SVG/1.1/DTD/svg11.dtd">
<svg version="1.1" id="图层_1" xmlns="http://www.w3.org/2000/svg" xmlns:xlink="http://www.w3.org/1999/xlink" x="0px" y="0px"
	 width="595.279px" height="275.598px" viewBox="0 0 595.279 275.598" enable-background="new 0 0 595.279 275.598"
	 xml:space="preserve">
<path fill="#777777" d="M258.008,16.714h94.29v24.312H291v18.582h48.272v24.312H291v22.054h61.298v24.311h-94.29V83.917v-4.169
	c-3.646-0.695-6.425-3.125-6.425-6.251c0-2.952,2.777-5.558,6.425-6.25V16.714z"/>
<path fill="#777777" d="M364.444,16.714h86.82v24.312H424.35v26.223c3.646,0.692,6.426,3.298,6.426,6.25
	c0,3.127-2.778,5.558-6.426,6.251v50.532h-32.99V79.748c-3.646-0.695-6.252-3.298-6.252-6.251c0-2.952,2.605-5.382,6.252-6.25
	V41.025h-26.915L364.444,16.714L364.444,16.714z"/>
<path fill="#777777" d="M575.063,73.497c0,3.127-2.604,5.558-6.251,6.251v50.532H535.82V84.785h-32.993v45.495h-32.989V79.748
	c-3.647-0.695-6.428-3.125-6.428-6.251c0-2.952,2.778-5.558,6.428-6.25V16.714h32.989v45.495h32.993V16.714h32.992v50.532
	C572.46,67.94,575.063,70.545,575.063,73.497z"/>
<path fill="#777777" d="M258.717,149.378h38.1v106.479h-30.935V172.17h-7.165V149.378z"/>
<path fill="#777777" d="M404.268,202.618c0,38.099-11.562,53.239-46.402,53.239c-35.005,0-46.4-15.143-46.4-53.239
	c0-37.938,11.396-53.24,46.4-53.24C392.707,149.378,404.268,164.681,404.268,202.618z M373.335,202.618
	c0-11.234-1.469-30.447-15.471-30.447c-14.164,0-15.467,19.213-15.467,30.447c0,11.233,1.303,30.445,15.467,30.445
	C371.866,233.064,373.335,213.852,373.335,202.618z"/>
<path fill="#777777" d="M511.713,202.618c0,38.099-11.562,53.239-46.403,53.239c-35.005,0-46.401-15.143-46.401-53.239
	c0-37.938,11.396-53.24,46.401-53.24C500.152,149.378,511.713,164.681,511.713,202.618z M480.777,202.618
	c0-11.234-1.466-30.447-15.469-30.447c-14.164,0-15.466,19.213-15.466,30.447c0,11.233,1.302,30.445,15.466,30.445
	C479.312,233.064,480.777,213.852,480.777,202.618z"/>
<path fill="#D83533" d="M86.193,31.24c-3.991,0-7.228,2.736-7.228,6.112s3.235,6.113,7.228,6.113h43.212l7.357-12.228H86.193V31.24z
	"/>
<path fill="#D83533" d="M79.057,73.497c-3.992,0-7.229,2.736-7.229,6.113c0,3.376,3.235,6.113,7.229,6.113h24.922l7.356-12.228
	L79.057,73.497L79.057,73.497z"/>
<path fill="#D83533" d="M147.008,14.213L136.763,31.24h2.25c3.99,0,7.229,2.736,7.229,6.112s-3.236,6.113-7.229,6.113h-9.608
	l-18.069,30.03h25.653c3.992,0,7.228,2.736,7.228,6.113c0,3.376-3.234,6.113-7.228,6.113h-33.011L89.441,109.88h15.935
	c3.991,0,7.229,2.737,7.229,6.113s-3.235,6.112-7.229,6.112h-23.29L71.83,139.664l70.54,37.716l78.563-41.165L147.008,14.213z"/>
<path fill="#D83533" d="M32.581,109.882c-3.991,0-7.228,2.737-7.228,6.113s3.235,6.112,7.228,6.112h49.505l7.356-12.228
	L32.581,109.882L32.581,109.882z"/>
<g>
	<path fill="#35A4DE" d="M212.318,150.347l-73.67,43.428L64.98,150.347l26.997,38.783H69.715c-3.99,0-7.228,2.737-7.228,6.113
		s3.236,6.113,7.228,6.113h30.772l17.857,25.652H60.244c-3.991,0-7.228,2.737-7.228,6.113s3.235,6.113,7.228,6.113h64.795
		c0.584,0,1.148-0.064,1.693-0.176l11.657,16.746L212.318,150.347z"/>
	<path fill="#35A4DE" d="M55.344,195.245c0,3.376-3.235,6.113-7.228,6.113h-4.984c-3.99,0-7.229-2.737-7.229-6.113l0,0
		c0-3.376,3.236-6.113,7.229-6.113h4.984C52.109,189.131,55.344,191.869,55.344,195.245L55.344,195.245z"/>
</g>
</svg>
